#Construct OBJ Exporter - Atriplex
mtllib Atriplex.mtl

# 280 Vertices
v  0.9615195 0.3600866 0.6762418
v  0.360931 0.4797541 0.6737298
v  0.2418936 -0.131841 -0.001256009
v  0.842482 -0.2515086 0.001256009
v  -0.167409 -0.05248392 0.6439571
v  -0.07362938 -0.6549089 0.5863156
v  0.5890777 -0.4928873 -0.02882077
v  0.495298 0.1095377 0.02882077
v  0.453827 -0.7803776 0.763678
v  0.9902663 -0.4879621 0.8056191
v  0.8104075 -0.04546702 0.02097058
v  0.2739681 -0.3378826 -0.02097058
v  1.248672 0.1087594 0.5900858
v  0.7879466 0.5111603 0.6190379
v  0.3118249 0.009525642 0.01447604
v  0.7725507 -0.3928753 -0.01447604
v  0.2172966 0.174422 0.8354648
v  -0.003987849 -0.3932519 0.7737193
v  0.4315456 -0.4755118 -0.03087277
v  0.65283 0.09216215 0.03087277
v  0.207147 -0.813715 0.662115
v  0.8192402 -0.8278039 0.6753994
v  0.8482344 -0.1987193 0.006642187
v  0.2361412 -0.1846303 -0.006642187
v  0.9081185 -0.4691112 0.8524708
v  0.7107065 0.1082003 0.9051293
v  0.4434818 0.09698094 0.02632926
v  0.6408938 -0.4803306 -0.02632926
v  0.3291621 0.4818529 0.6622407
v  -0.1478931 0.1010375 0.6129358
v  0.3036602 -0.3820826 -0.02465246
v  0.7807154 -0.001267076 0.02465246
v  0.03053355 -0.4913682 0.7654909
v  0.554271 -0.8081862 0.746559
v  0.8040565 -0.3500838 -0.009465958
v  0.2803191 -0.03326581 0.009465958
v  1.190116 -0.6885382 0.5204786
v  1.308914 -0.09100636 0.5827338
v  0.6015869 0.1070911 0.03112757
v  0.4827887 -0.4904407 -0.03112757
v  -0.6505227 -0.1160228 0.4062912
v  -0.3646239 -0.4654464 0.442116
v  0.06654515 -0.1561552 0.01791245
v  -0.2193537 0.1932685 -0.01791245
v  0.1826803 -0.4073651 0.5140641
v  0.4129282 -0.01743212 0.5215886
v  0.03871966 0.2135231 0.003762228
v  -0.1915282 -0.1764098 -0.003762228
v  0.1496043 0.297222 0.6197273
v  -0.2937934 0.3799156 0.5787554
v  -0.2981031 0.0599035 -0.02048596
v  0.1452946 -0.02279019 0.02048596
v  -0.6874208 0.1640732 0.3439183
v  -0.6143667 -0.2824256 0.3644203
v  -0.03987723 -0.2046928 0.010251
v  -0.1129313 0.2418061 -0.010251
v  -0.1630814 -0.3614829 0.6007105
v  0.2303444 -0.1387535 0.6276582
v  0.1203086 0.1299213 0.01347387
v  -0.2731172 -0.09280804 -0.01347387
v  0.3172533 0.2031403 0.568998
v  -0.02491992 0.4972831 0.5300627
v  -0.2474909 0.1656281 -0.01946767
v  0.09468233 -0.1285148 0.01946767
v  -0.2616426 0.3296552 0.6178192
v  -0.4210082 -0.09427985 0.6175047
v  -0.1560871 -0.1934109 -0.0001572011
v  0.003278531 0.2305242 0.0001572011
v  -0.3461609 -0.4812565 0.4361355
v  0.1050246 -0.4854105 0.4752859
v  0.1491885 0.01647966 0.01957519
v  -0.3019971 0.02063365 -0.01957519
v  0.2567902 -0.06626617 0.6281581
v  0.1075262 0.3605104 0.601692
v  -0.1510363 0.2319449 -0.01323304
v  -0.001772277 -0.1948316 0.01323304
v  -0.279958 0.5945291 0.3736545
v  -0.6290414 0.306751 0.3526079
v  -0.250946 -0.1253324 -0.01052328
v  0.09813743 0.1624457 0.01052328
v  0.9103506 0.7115067 0.449454
v  0.4928808 0.8315285 0.4548078
v  0.3578807 0.3821275 0.002676902
v  0.7753505 0.2621058 -0.002676902
v  0.08789125 0.4860668 0.4644682
v  0.1177787 0.05312285 0.4449441
v  0.5815594 0.1056446 -0.009762048
v  0.5516718 0.5385886 0.009762048
v  0.4871936 -0.06025037 0.5650443
v  0.8842192 0.1158792 0.5730457
v  0.7651284 0.4101814 0.004000734
v  0.3681028 0.2340519 -0.004000734
v  1.096672 0.5138937 0.3924904
v  0.7952033 0.8263579 0.4065412
v  0.415881 0.4783487 0.007025384
v  0.7173501 0.1658845 -0.007025384
v  0.3772728 0.630433 0.5838473
v  0.186464 0.2405653 0.5662346
v  0.4712112 0.1271828 -0.00880638
v  0.66202 0.5170504 0.00880638
v  0.3086477 -0.07286683 0.4992275
v  0.7406375 -0.1186458 0.4972246
v  0.7826105 0.2992271 -0.001001463
v  0.3506207 0.3450061 0.001001463
v  0.8283312 0.1357769 0.6070995
v  0.7236413 0.5569594 0.6260824
v  0.5142707 0.5327078 0.009491424
v  0.6189605 0.1115254 -0.009491424
v  0.4702947 0.8344744 0.4472126
v  0.1099171 0.5921475 0.4362305
v  0.3864267 0.2009532 -0.005491053
v  0.7468044 0.44328 0.005491053
v  0.2049585 0.1689526 0.5635
v  0.5561615 -0.08646825 0.5520294
v  0.7422171 0.1944062 -0.005735316
v  0.3910141 0.449827 0.005735316
v  1.007302 -0.0480153 0.3749468
v  1.127443 0.3690297 0.3937753
v  0.6266861 0.5306392 0.009414242
v  0.5065451 0.1135941 -0.009414242
v  -0.5915182 -1.420291 0.6183523
v  0.05219594 -1.457919 0.6430329
v  0.1191178 -0.7267334 0.01234034
v  -0.5245963 -0.689106 -0.01234034
v  0.5242695 -0.8265568 0.7059502
v  0.3391808 -0.2083862 0.7055289
v  -0.2952836 -0.3988344 -0.0002106282
v  -0.1101949 -1.017005 0.0002106282
v  -0.2381979 -0.1749118 0.8692683
v  -0.7553039 -0.560138 0.8448758
v  -0.4612923 -0.9005328 -0.01219626
v  0.05581373 -0.5153066 0.01219626
v  -0.9239204 -1.19065 0.5365179
v  -0.3851103 -1.54531 0.5536246
v  0.0666658 -0.8852499 0.008553362
v  -0.4721443 -0.5305896 -0.008553362
v  0.1477211 -1.13974 0.8553894
v  0.2962595 -0.5119119 0.8680802
v  -0.1284701 -0.3940057 0.006345418
v  -0.2770084 -1.021834 -0.006345418
v  0.01898387 -0.09293056 0.7833322
v  -0.6214323 -0.1677302 0.7575445
v  -0.5229474 -0.7453195 -0.01289388
v  0.1174688 -0.6705199 0.01289388
v  -0.6693079 -0.5734377 0.8973352
v  -0.3797757 -1.1501 0.9022842
v  -0.05797316 -0.9962509 0.002474518
v  -0.3475054 -0.4195886 -0.002474518
v  0.08619452 -1.454179 0.6329271
v  0.5285587 -0.9849188 0.6553295
v  0.01844285 -0.4732897 0.01120121
v  -0.4239214 -0.9425497 -0.01120121
v  0.2460045 -0.4141304 0.8679279
v  -0.3461231 -0.1584612 0.8476546
v  -0.4988031 -0.5800852 -0.01013661
v  0.09332457 -0.8357543 0.01013661
v  -0.9789344 -0.3470874 0.5552506
v  -1.01626 -0.9912354 0.5467158
v  -0.2214021 -1.029994 -0.004267372
v  -0.1840764 -0.3858457 0.004267372
v  0.2235723 1.213431 0.5685452
v  -0.2656672 1.019997 0.594537
v  -0.09601456 0.5127643 0.01299587
v  0.3932249 0.7061983 -0.01299587
v  -0.4001123 0.3886582 0.5863147
v  -0.05417423 -0.003885925 0.5256233
v  0.3215742 0.4132093 -0.03034572
v  -0.02436389 0.8057534 0.03034572
v  0.392649 0.1537891 0.6529977
v  0.6452527 0.6157392 0.6685213
v  0.2749071 0.8404564 0.007761829
v  0.02230328 0.3785063 -0.007761829
v  0.5441426 1.164359 0.4788314
v  0.02541332 1.240911 0.528904
v  -0.1107595 0.6477571 0.02503632
v  0.4079698 0.5712056 -0.02503632
v  -0.219915 0.7346991 0.7362962
v  -0.1176872 0.2203847 0.6865208
v  0.1997191 0.3523241 -0.02488767
v  0.09749126 0.8666385 0.02488767
v  0.2257545 0.01327276 0.5763698
v  0.6745557 0.2885331 0.5603455
v  0.3730057 0.7471114 -0.008012136
v  -0.07579543 0.4718512 0.008012136
v  0.5792422 0.591755 0.7126404
v  0.1700161 0.9177805 0.773377
v  -0.05600788 0.7724941 0.03036831
v  0.3532182 0.4464686 -0.03036831
v  -0.2900707 1.006543 0.5861091
v  -0.4589446 0.5082685 0.5605871
v  0.06416824 0.3603439 -0.01276102
v  0.2330421 0.8586187 0.01276102
v  -0.04740594 0.165438 0.6767747
v  0.4773369 0.1802531 0.6334961
v  0.4109766 0.6168889 -0.02163924
v  -0.1137662 0.6020738 0.02163924
v  0.8704711 0.5598007 0.4123834
v  0.6804001 1.047942 0.4675097
v  0.05356969 0.8535519 0.02756313
v  0.2436406 0.3654108 -0.02756313
v  -0.2101788 -0.394076 0.6295304
v  0.1025745 0.1675301 0.6011147
v  -0.5598736 0.5053077 -0.01420779
v  -0.8726268 -0.05629849 0.01420779
v  -0.2568679 0.8683642 0.6398996
v  -0.8914186 0.9710505 0.6686136
v  -1.033525 0.2758478 0.01435697
v  -0.3989748 0.1731615 -0.01435697
v  -1.161323 0.4788897 0.8787816
v  -1.040018 -0.1529581 0.8875557
v  -0.6555976 -0.09141928 0.004387039
v  -0.7769027 0.5404285 -0.004387039
v  -0.5641636 -0.5971389 0.580371
v  -0.01259059 -0.2676157 0.5456552
v  -0.4404637 0.3892662 -0.01735788
v  -0.9920367 0.05974303 0.01735788
v  -0.129892 0.4045929 0.8116719
v  -0.6284953 0.8110337 0.8266448
v  -0.9655519 0.427725 0.007486448
v  -0.4669485 0.02128419 -0.007486448
v  -1.128769 0.7393711 0.7744673
v  -1.339277 0.131826 0.7989409
v  -0.8215042 -0.07926789 0.01223684
v  -0.6109961 0.5282772 -0.01223684
v  -0.9880695 -0.07843176 0.9324176
v  -0.34547 -0.06928727 0.9007037
v  -0.3949504 0.2290768 -0.01585695
v  -1.03755 0.2199324 0.01585695
v  0.1133168 0.1989617 0.5884088
v  -0.1157392 0.8002512 0.5856287
v  -0.8307782 0.5251495 -0.001390047
v  -0.6017222 -0.0761402 0.001390047
v  -0.7379195 0.8084872 0.8327987
v  -1.223835 0.3880357 0.8664143
v  -0.9592081 0.0142789 0.0168078
v  -0.4732923 0.4347304 -0.0168078
v  -1.343801 -0.2788986 0.6227556
v  -0.7823586 -0.5925832 0.6025414
v  -0.4355293 0.06766237 -0.01010715
v  -0.9969711 0.3813469 0.01010715
v  -0.5950857 0.1547163 0.492607
v  -0.1369819 0.323726 0.468538
v  -0.3507518 0.8347138 -0.01203447
v  -0.8088555 0.6657041 0.01203447
v  0.001837492 0.9063567 0.4845804
v  -0.3136816 1.2796 0.4964185
v  -0.7375632 0.9368304 0.005919072
v  -0.4220441 0.5635875 -0.005919072
v  -0.7132088 1.132785 0.6582896
v  -0.9554847 0.7084622 0.6742608
v  -0.7009416 0.5380475 0.007985587
v  -0.4586657 0.9623705 -0.007985587
v  -0.899592 0.211537 0.4528516
v  -0.4183464 0.1285483 0.4300885
v  -0.3391808 0.7087146 -0.01138154
v  -0.8204265 0.7917033 0.01138154
v  -0.154525 0.5791623 0.6224049
v  -0.2414404 1.060253 0.6220046
v  -0.6232613 0.9907543 -0.0002001615
v  -0.536346 0.5096636 0.0002001615
v  -0.5654233 1.265101 0.5763558
v  -0.9872152 1.019005 0.5993927
v  -0.7906996 0.6271607 0.01151845
v  -0.3689077 0.8732573 -0.01151845
v  -0.8887913 0.7266117 0.7081501
v  -0.5133531 0.413861 0.6927922
v  -0.3920846 0.5938336 -0.007678927
v  -0.7675227 0.9065844 0.007678927
v  -0.1152164 0.3363238 0.4586549
v  0.04976058 0.7963545 0.4461234
v  -0.4973152 0.9802243 -0.006265752
v  -0.6622921 0.5201936 0.006265752
v  -0.3058623 1.112952 0.6252041
v  -0.7941515 1.111023 0.649134
v  -0.8239482 0.7492443 0.01196496
v  -0.3356591 0.7511736 -0.01196496
v  -1.192348 0.7810698 0.4704717
v  -1.023316 0.3223585 0.4666342
v  -0.4952875 0.5208533 -0.001918753
v  -0.6643198 0.9795647 0.001918753

# 70 Normals
vn  -0.1463164 -0.7200958 0.6782724
vn  0.6753408 0.03464201 0.7366917
vn  -0.4408539 0.7348203 0.5154483
vn  -0.4066359 -0.5196378 0.7514145
vn  0.8028924 -0.3642985 0.4718586
vn  0.001893289 0.7283393 0.6852141
vn  -0.9008105 -0.3334059 0.2781741
vn  0.3892694 -0.5802664 0.7153742
vn  0.4411968 0.6954582 0.5671713
vn  -0.6078306 0.03821002 0.7931468
vn  0.4457472 0.4443803 0.7770686
vn  -0.6619115 0.3783592 0.6470838
vn  -0.2036709 -0.8629993 0.4623314
vn  0.5087873 0.1223738 0.8521503
vn  -0.4681428 0.7757169 0.4232087
vn  -0.5673259 -0.582976 0.5816188
vn  0.8509471 -0.3201967 0.416369
vn  -0.0577103 0.6738843 0.7365795
vn  -0.8640155 -0.276078 0.4210205
vn  0.3100887 -0.437863 0.8438727
vn  -0.1832023 -0.6693474 0.7200076
vn  0.699071 0.01602117 0.7148728
vn  -0.3623824 0.7947525 0.4868751
vn  -0.4237241 -0.4443083 0.7893339
vn  0.784933 -0.4053309 0.4686012
vn  0.08353069 0.7600335 0.6444935
vn  -0.9157972 -0.2420767 0.320491
vn  0.3629632 -0.5730804 0.7347358
vn  0.5146618 0.6844697 0.5163569
vn  -0.5770211 0.1298221 0.8063454
vn  0.009102299 0.6526488 0.7576059
vn  -0.6986153 -0.2087086 0.684381
vn  0.5153204 -0.7210639 0.4631542
vn  0.2914293 0.4825864 0.8259415
vn  -0.8685991 0.1963058 0.4549723
vn  0.06841902 -0.7940272 0.6040196
vn  0.829545 0.4196621 0.3684272
vn  -0.5022906 0.4379062 0.7456154
vn  -0.3648133 -0.8082538 0.462209
vn  0.5677075 -0.04378834 0.822065
vn  0.3019759 -0.6730482 0.6751419
vn  0.5852314 0.4073471 0.7011224
vn  -0.7418252 0.3872473 0.5474804
vn  -0.021316 -0.644421 0.7643737
vn  0.8949562 0.1367868 0.4246678
vn  -0.358261 0.6245306 0.6939816
vn  -0.5608641 -0.7635954 0.3199273
vn  0.6773885 -0.2647334 0.686339
vn  0.02208474 0.8329492 0.5529084
vn  -0.4902789 -0.2839598 0.8240106
vn  -0.5409852 0.3401867 0.7691606
vn  -0.07603616 -0.6750653 0.7338292
vn  0.8976756 0.1779381 0.4031336
vn  -0.2620168 0.5239586 0.810441
vn  -0.5268623 -0.6657942 0.5283315
vn  0.7779338 -0.2462594 0.578079
vn  0.001740379 0.9509132 0.3094528
vn  -0.5695862 -0.2133088 0.7937701
vn  0.5954288 -0.6504326 0.4715951
vn  0.3309389 0.5425708 0.7720729
vn  -0.1922503 0.6284373 0.7537283
vn  -0.4993463 -0.4456851 0.7429792
vn  0.7961907 -0.4389271 0.4164412
vn  0.1390318 0.5875904 0.7971247
vn  -0.8350386 -0.1504203 0.5292298
vn  0.4287281 -0.6790258 0.5959163
vn  0.6187848 0.7283633 0.2942656
vn  -0.5740765 0.2273042 0.7866186
vn  0.02757742 -0.8698252 0.4925888
vn  0.6016454 0.2152674 0.7692092

# 4 Texture Coordinates
vt  0 -1
vt  0 0
vt  1 0
vt  1 -1

# 70 Faces
g Group
usemtl Atriplex_0
f 1/1/1 2/2/1 3/3/1 4/4/1
f 5/1/2 6/2/2 7/3/2 8/4/2
f 9/1/3 10/2/3 11/3/3 12/4/3
f 13/1/4 14/2/4 15/3/4 16/4/4
f 17/1/5 18/2/5 19/3/5 20/4/5
f 21/1/6 22/2/6 23/3/6 24/4/6
f 25/1/7 26/2/7 27/3/7 28/4/7
f 29/1/8 30/2/8 31/3/8 32/4/8
f 33/1/9 34/2/9 35/3/9 36/4/9
f 37/1/10 38/2/10 39/3/10 40/4/10
f 41/1/11 42/2/11 43/3/11 44/4/11
f 45/1/12 46/2/12 47/3/12 48/4/12
f 49/1/13 50/2/13 51/3/13 52/4/13
f 53/1/14 54/2/14 55/3/14 56/4/14
f 57/1/15 58/2/15 59/3/15 60/4/15
f 61/1/16 62/2/16 63/3/16 64/4/16
f 65/1/17 66/2/17 67/3/17 68/4/17
f 69/1/18 70/2/18 71/3/18 72/4/18
f 73/1/19 74/2/19 75/3/19 76/4/19
f 77/1/20 78/2/20 79/3/20 80/4/20
f 81/1/21 82/2/21 83/3/21 84/4/21
f 85/1/22 86/2/22 87/3/22 88/4/22
f 89/1/23 90/2/23 91/3/23 92/4/23
f 93/1/24 94/2/24 95/3/24 96/4/24
f 97/1/25 98/2/25 99/3/25 100/4/25
f 101/1/26 102/2/26 103/3/26 104/4/26
f 105/1/27 106/2/27 107/3/27 108/4/27
f 109/1/28 110/2/28 111/3/28 112/4/28
f 113/1/29 114/2/29 115/3/29 116/4/29
f 117/1/30 118/2/30 119/3/30 120/4/30
f 121/1/31 122/2/31 123/3/31 124/4/31
f 125/1/32 126/2/32 127/3/32 128/4/32
f 129/1/33 130/2/33 131/3/33 132/4/33
f 133/1/34 134/2/34 135/3/34 136/4/34
f 137/1/35 138/2/35 139/3/35 140/4/35
f 141/1/36 142/2/36 143/3/36 144/4/36
f 145/1/37 146/2/37 147/3/37 148/4/37
f 149/1/38 150/2/38 151/3/38 152/4/38
f 153/1/39 154/2/39 155/3/39 156/4/39
f 157/1/40 158/2/40 159/3/40 160/4/40
f 161/1/41 162/2/41 163/3/41 164/4/41
f 165/1/42 166/2/42 167/3/42 168/4/42
f 169/1/43 170/2/43 171/3/43 172/4/43
f 173/1/44 174/2/44 175/3/44 176/4/44
f 177/1/45 178/2/45 179/3/45 180/4/45
f 181/1/46 182/2/46 183/3/46 184/4/46
f 185/1/47 186/2/47 187/3/47 188/4/47
f 189/1/48 190/2/48 191/3/48 192/4/48
f 193/1/49 194/2/49 195/3/49 196/4/49
f 197/1/50 198/2/50 199/3/50 200/4/50
f 201/1/51 202/2/51 203/3/51 204/4/51
f 205/1/52 206/2/52 207/3/52 208/4/52
f 209/1/53 210/2/53 211/3/53 212/4/53
f 213/1/54 214/2/54 215/3/54 216/4/54
f 217/1/55 218/2/55 219/3/55 220/4/55
f 221/1/56 222/2/56 223/3/56 224/4/56
f 225/1/57 226/2/57 227/3/57 228/4/57
f 229/1/58 230/2/58 231/3/58 232/4/58
f 233/1/59 234/2/59 235/3/59 236/4/59
f 237/1/60 238/2/60 239/3/60 240/4/60
f 241/1/61 242/2/61 243/3/61 244/4/61
f 245/1/62 246/2/62 247/3/62 248/4/62
f 249/1/63 250/2/63 251/3/63 252/4/63
f 253/1/64 254/2/64 255/3/64 256/4/64
f 257/1/65 258/2/65 259/3/65 260/4/65
f 261/1/66 262/2/66 263/3/66 264/4/66
f 265/1/67 266/2/67 267/3/67 268/4/67
f 269/1/68 270/2/68 271/3/68 272/4/68
f 273/1/69 274/2/69 275/3/69 276/4/69
f 277/1/70 278/2/70 279/3/70 280/4/70

