#Construct OBJ exporter - Limonium
mtllib Limonium.mtl

# 156 Vertices
v  -0.2470188 -0.555171 0.4246213
v  -0.1283328 -0.6505519 0.2961643
v  -0.1263682 -0.3977593 0.4059111
v  -0.3918598 -0.6809404 0.3708794
v  -0.3898952 -0.4281479 0.4806262
v  -0.3949182 -0.4243552 0.4880343
v  -0.5229085 -0.1465113 0.3985075
v  -0.6614162 -0.564893 0.3840067
v  -0.1092047 -0.285643 0.4611924
v  -0.2477124 -0.7040247 0.4466916
v  0.2994186 0.09786578 0.6083022
v  0.1755777 -0.07835682 0.4117194
v  0.5340764 -0.07486691 0.5966905
v  0.1174514 0.3066908 0.5171114
v  0.4759501 0.3101807 0.7020823
v  0.4806425 0.3176352 0.7132579
v  0.8919998 0.5116916 0.6092449
v  0.2790393 0.704091 0.5468261
v  0.6928284 -0.09715612 0.6884251
v  0.07986781 0.09524325 0.6260062
v  -0.602163 0.3831596 0.513331
v  -0.7481644 0.4664523 0.3163203
v  -0.7295723 0.1582177 0.497991
v  -0.4272774 0.561281 0.4443733
v  -0.4086853 0.2530463 0.6260442
v  -0.4028604 0.2501179 0.6368697
v  -0.1819518 -0.09666164 0.5855312
v  -0.06632897 0.4607423 0.5182261
v  -0.7432567 0.01967381 0.5847325
v  -0.6276339 0.5770777 0.5174273
v  -1.060745 -0.3098987 0.4269113
v  -1.172875 -0.3944761 0.268876
v  -0.9203774 -0.4654087 0.3983628
v  -1.157074 -0.1264408 0.3848954
v  -0.9045773 -0.1973734 0.5143823
v  -0.9002553 -0.194008 0.523125
v  -0.5780158 -0.109442 0.4644214
v  -0.9827351 0.1247953 0.4456823
v  -0.8122886 -0.5145532 0.4602884
v  -1.217008 -0.2803159 0.4415492
v  0.6867338 -0.54526 0.4741192
v  0.7994761 -0.6644216 0.3088886
v  0.8626485 -0.3927839 0.4700599
v  0.4907724 -0.646095 0.3990003
v  0.5539448 -0.3744574 0.5601715
v  0.5491148 -0.3699611 0.5694203
v  0.4696828 -0.01150665 0.5063158
v  0.2104555 -0.4515765 0.4373971
v  0.9092996 -0.2771125 0.5487497
v  0.6500723 -0.7171824 0.479831
v  0.3346731 -0.9224071 0.5439447
v  0.5128107 -0.8835592 0.3470116
v  0.2729448 -0.6620122 0.5237252
v  0.331149 -1.181457 0.4739062
v  0.09128311 -0.9599101 0.6506197
v  0.08432265 -0.9617394 0.6615608
v  -0.325545 -0.8555809 0.5899914
v  -0.01640584 -1.360039 0.5366821
v  0.1815907 -0.5468134 0.6090376
v  0.4907299 -1.051271 0.5557283
v  -0.2893521 -0.4997972 0.2978302
v  -0.2873715 -0.7150785 0.380051
v  -0.3584344 -0.4618196 0.514384
v  -0.08617912 -0.5004807 0.4065983
v  -0.3612911 -0.42755 0.2590126
v  -0.2482865 -0.1963555 0.5230983
v  -0.2769157 -0.6680515 0.5254746
v  -0.6667583 -0.4079741 0.4646061
v  0.3916272 0.1610274 0.4283979
v  0.06926101 0.1529316 0.5274794
v  0.4242519 0.263348 0.7481926
v  0.384984 -0.1362169 0.5877852
v  0.4991621 0.2680478 0.3785447
v  0.8137695 0.1086831 0.7871518
v  0.1239938 0.1389718 0.7444994
v  0.5001956 0.7158768 0.6798466
v  -0.5190796 0.3012235 0.3658101
v  -0.5678213 0.58842 0.4357966
v  -0.4595678 0.2956424 0.6593793
v  -0.7969035 0.2829742 0.4764287
v  -0.4096238 0.2154335 0.3380035
v  -0.5613709 -0.06191584 0.6983154
v  -0.5973732 0.5473713 0.6284202
v  -0.04838783 0.2723306 0.647916
v  -0.983678 -0.2609899 0.3034238
v  -1.214629 -0.2280738 0.3769217
v  -0.9488639 -0.2271554 0.5431463
v  -1.035257 -0.4849474 0.3871274
v  -0.8906531 -0.1970564 0.2776362
v  -0.6965715 -0.3986622 0.5511978
v  -1.180514 -0.2685514 0.5306528
v  -0.8257377 0.08584295 0.5401291
v  0.6516522 -0.4548882 0.3355573
v  0.6020465 -0.711129 0.4021207
v  0.5818142 -0.4248494 0.5939583
v  0.8838582 -0.5191671 0.4559704
v  0.5867846 -0.3503029 0.3022063
v  0.7717576 -0.1508856 0.6364929
v  0.6253485 -0.6801142 0.5769192
v  0.242166 -0.2830963 0.5521086
v  0.2204813 -0.9200535 0.3859934
v  0.4570974 -1.102693 0.4699325
v  0.158402 -0.9559804 0.6880621
v  0.4129896 -0.7090521 0.5076859
v  0.0782669 -0.9326429 0.3511077
v  -0.01879208 -0.6128728 0.7186473
v  0.4418937 -1.049437 0.6687451
v  -0.168836 -1.229144 0.6638154
v  -0.2844856 -0.5005902 0.3056869
v  -0.2891788 -0.5055962 0.3050676
v  -0.3402259 -0.4277188 0.1367488
v  -0.3463271 -0.4308041 0.135896
v  -0.3263109 -0.4327058 -0.0004263943
v  -0.3202097 -0.4296204 0.0004263943
v  -0.3602421 -0.4258172 0.2730713
v  -0.3663432 -0.4289025 0.2722185
v  0.3898211 0.1538952 0.4398098
v  0.3824561 0.1606403 0.438403
v  0.5113692 0.2370568 0.2000163
v  0.5067974 0.2459094 0.1984518
v  0.517821 0.2163931 -0.0007822305
v  0.5223928 0.2075405 0.0007822305
v  0.5003456 0.2665731 0.3992503
v  0.4957739 0.2754257 0.3976859
v  -0.5266969 0.302538 0.375065
v  -0.5213531 0.3096633 0.3741172
v  -0.4169866 0.1944159 0.1782639
v  -0.4095075 0.1992891 0.1775291
v  -0.4135334 0.1786436 -0.0003673997
v  -0.4210124 0.1737704 0.0003673997
v  -0.4129608 0.2150614 0.3561605
v  -0.4054817 0.2199346 0.3554257
v  -0.9861732 -0.2668972 0.3108933
v  -0.9903574 -0.2609051 0.3106552
v  -0.8845675 -0.2022213 0.146205
v  -0.8864506 -0.1951575 0.1460436
v  -0.880735 -0.196972 -8.068793e-05
v  -0.8788519 -0.2040358 8.068793e-05
v  -0.8902831 -0.2004068 0.2923293
v  -0.8921663 -0.193343 0.2921679
v  0.6570273 -0.4580285 0.3444331
v  0.6504534 -0.4625064 0.343177
v  0.6108254 -0.3388079 0.1596711
v  0.6031042 -0.3407355 0.1584408
v  0.6255267 -0.3290341 -0.0006151421
v  0.6332479 -0.3271066 0.0006151421
v  0.5884029 -0.3505093 0.318727
v  0.5806817 -0.3524368 0.3174967
v  0.226764 -0.9156023 0.3958355
v  0.2277929 -0.9247849 0.3949549
v  0.07611651 -0.9125631 0.1851932
v  0.07392894 -0.921548 0.1843938
v  0.07032432 -0.9042287 -0.0003997109
v  0.0725119 -0.8952438 0.0003997109
v  0.07972113 -0.9298824 0.3699867
v  0.07753356 -0.9388673 0.3691873

# 168 Normals
vn  0.2925847 -0.3827144 0.8763127
vn  0.4254794 -0.492798 0.759024
vn  0.4275714 -0.2236093 0.875889
vn  0.14486 -0.5251576 0.8385851
vn  0.146952 -0.2559689 0.9554502
vn  -0.1452582 0.01380023 0.9892975
vn  -0.2336729 0.1990229 0.9517283
vn  -0.3258551 -0.07942587 0.9420775
vn  0.04166257 0.1064255 0.9934475
vn  -0.05051954 -0.1720233 0.9837966
vn  -0.435366 -0.2982194 0.8494243
vn  -0.5351424 -0.4330494 0.7253212
vn  -0.2743511 -0.4305106 0.8598791
vn  -0.5774267 -0.1529449 0.801989
vn  -0.3166354 -0.1504063 0.9365469
vn  -0.05465068 0.1463305 0.987725
vn  0.1311604 0.2378161 0.9624139
vn  -0.1475275 0.3252922 0.9340346
vn  0.04060538 -0.03900186 0.9984138
vn  -0.2380826 0.04847424 0.9700345
vn  -0.4417158 0.4356159 0.7842997
vn  -0.5711386 0.5135366 0.6403756
vn  -0.5559093 0.2610536 0.7891868
vn  -0.3082917 0.5912132 0.7452672
vn  -0.2930624 0.3387302 0.8940784
vn  0.02247358 0.1152506 0.9930822
vn  0.1360687 -0.05971993 0.9888978
vn  0.1952623 0.2256452 0.9544407
vn  -0.1512935 -0.0001615387 0.9884889
vn  -0.09209995 0.2852035 0.9540317
vn  -0.5018711 -0.3185004 0.804166
vn  -0.625542 -0.4104471 0.6634986
vn  -0.3722033 -0.4816161 0.793417
vn  -0.6096894 -0.1415183 0.7799048
vn  -0.3563506 -0.2126874 0.9098232
vn  -0.03908184 0.01240704 0.999159
vn  0.1621195 0.06571307 0.9845807
vn  -0.09167319 0.2125994 0.9728296
vn  0.01521097 -0.1883254 0.9819889
vn  -0.2385818 -0.04143913 0.9702379
vn  0.2074524 -0.5344062 0.8193739
vn  0.314787 -0.6548648 0.6870672
vn  0.3723428 -0.4073787 0.8339086
vn  0.03353049 -0.6381677 0.7691669
vn  0.0910862 -0.3906816 0.9160083
vn  -0.1392232 -0.07265468 0.9875922
vn  -0.1875523 0.1298436 0.9736348
vn  -0.3351643 -0.1207457 0.9343904
vn  0.06277899 -0.02140056 0.997798
vn  -0.08483296 -0.2719899 0.9585536
vn  0.5858385 -0.01207445 0.8103379
vn  0.7396807 0.01836352 0.6727074
vn  0.5500827 0.1934818 0.8123877
vn  0.5960892 -0.217105 0.7730091
vn  0.4064912 -0.04198673 0.9126894
vn  0.0194175 -0.09329604 0.9954491
vn  -0.1826337 -0.04292756 0.9822434
vn  -0.0299124 -0.2921404 0.9559075
vn  0.06790204 0.1096101 0.9916527
vn  0.2206233 -0.1396028 0.9653168
vn  -0.2925848 0.3827145 -0.8763126
vn  -0.3876041 -0.3320049 -0.8599626
vn  -0.6679286 0.667035 -0.330054
vn  0.4060472 0.5145271 -0.75524
vn  0.1452582 -0.01380034 -0.9892975
vn  0.4749194 0.5513507 -0.6859038
vn  0.404335 -0.6115979 -0.680045
vn  -0.556807 0.02961301 -0.8301139
vn  0.435366 0.2982195 -0.8494243
vn  -0.2803415 0.3812154 -0.880956
vn  0.676298 0.6787687 -0.2861715
vn  0.5704777 -0.3979904 -0.718442
vn  0.05465057 -0.1463305 -0.987725
vn  0.6037413 -0.466173 -0.6466678
vn  -0.5580258 -0.4151586 -0.7185059
vn  0.07559892 0.556504 -0.8273984
vn  0.4417159 -0.4356159 -0.7842996
vn  0.4490587 0.2827581 -0.8475814
vn  0.7775453 -0.6056533 -0.1691367
vn  -0.2460742 -0.6440938 -0.7242863
vn  -0.02247364 -0.1152505 -0.9930822
vn  -0.318163 -0.6817539 -0.6587746
vn  -0.3864418 0.4737687 -0.7913318
vn  0.6547173 -0.04785029 -0.7543577
vn  0.5018712 0.3185004 -0.8041659
vn  -0.1801419 0.5527838 -0.813621
vn  0.8076563 0.5561975 -0.195795
vn  0.4865492 -0.4019675 -0.7756881
vn  0.03908173 -0.01240705 -0.999159
vn  0.5036708 -0.4851 -0.7148383
vn  -0.6205329 -0.1828514 -0.7625643
vn  0.2036166 0.6404098 -0.7405508
vn  -0.2074525 0.5344062 -0.8193738
vn  -0.4477879 -0.1426087 -0.8826941
vn  -0.5160737 0.8236128 -0.2352231
vn  0.5033543 0.5052815 -0.7009458
vn  0.1392232 0.07265457 -0.9875922
vn  0.5783437 0.5188481 -0.6295357
vn  0.269503 -0.597526 -0.7552025
vn  -0.5387961 0.239958 -0.8075389
vn  -0.5858386 0.0120744 -0.8103378
vn  -0.09889435 -0.5184751 -0.8493547
vn  -0.9735144 -0.08888064 -0.2106419
vn  -0.2280476 0.6341587 -0.7388079
vn  -0.0194174 0.09329601 -0.9954491
vn  -0.2038679 0.7112922 -0.6726821
vn  0.6392257 -0.08765635 -0.7640072
vn  -0.4784609 -0.4165354 -0.7730287
vn  0.6725639 -0.5725482 -0.4688779
vn  0.4507949 -0.7557719 -0.4749663
vn  0.5661117 -0.6692154 -0.4813194
vn  -0.6712874 0.5740457 0.4688762
vn  -0.5653541 0.6699035 0.4812527
vn  -0.4491283 0.7569355 0.474692
vn  0.441303 -0.8940254 0.07726768
vn  0.0 0.0 0.0
vn  0.0 0.0 0.0
vn  0.06752706 -0.05277644 -0.9963206
vn  -0.5286668 -0.6825088 -0.5046715
vn  -0.7147604 -0.463859 -0.5234045
vn  -0.626056 -0.5777088 -0.5237426
vn  0.5301822 0.6812576 0.5047721
vn  0.6267596 0.5769628 0.5237235
vn  0.7159674 0.462212 0.5232119
vn  -0.8896807 -0.456214 0.01836183
vn  0.0 0.0 0.0
vn  0.0 0.0 0.0
vn  0.01493488 -0.06927219 -0.997486
vn  -0.6722255 0.4233737 -0.6073447
vn  -0.4745635 0.6324075 -0.61225
vn  -0.5771962 0.5312443 -0.6201806
vn  0.6711445 -0.4250172 0.6073923
vn  0.576539 -0.5320293 0.620119
vn  0.4730926 -0.6338038 0.6119446
vn  -0.5497661 0.8310835 -0.08400875
vn  0.0 0.0 0.0
vn  0.0 0.0 0.0
vn  0.05038836 -0.06739271 -0.9964533
vn  -0.6511215 -0.4780886 -0.5894676
vn  -0.7871544 -0.2250019 -0.5742492
vn  -0.7241695 -0.353635 -0.592048
vn  0.6523407 0.4765473 0.5893678
vn  0.7247021 0.3527689 0.5919129
vn  0.7879941 0.2231837 0.5738068
vn  -0.9654785 -0.2581803 -0.03455841
vn  0.0 0.0 0.0
vn  0.0 0.0 0.0
vn  0.01648746 0.07183408 -0.9972803
vn  0.5400348 -0.6392174 -0.5475067
vn  0.2852536 -0.771152 -0.5691705
vn  0.4159384 -0.7099049 -0.5683575
vn  -0.5384769 0.6404116 0.5476455
vn  -0.4150552 0.7104263 0.5683518
vn  -0.283383 0.7719736 0.5689911
vn  0.2474994 -0.9682064 -0.03633786
vn  0.0 0.0 0.0
vn  0.0 0.0 0.0
vn  0.05512567 0.05151573 -0.9971496
vn  0.8057421 0.1453488 -0.5741545
vn  0.8040153 -0.1423603 -0.5773153
vn  0.8103881 0.001570983 -0.5858912
vn  -0.8060747 -0.1434094 0.5741755
vn  -0.8104404 -0.0005490963 0.5858209
vn  -0.8038791 0.1443827 0.5770026
vn  0.9716364 -0.2329362 -0.04078431
vn  0.0 0.0 0.0
vn  0.0 0.0 0.0
vn  -0.03988451 0.008573698 -0.9991675

# 13 Texture Coordinates
vt  0.5 -0.5
vt  0 0
vt  1 0
vt  0 -1
vt  1 -1
vt  0.5603694 -0.9510593
vt  -4.789498e-08 8.76161e-09
vt  1.120739 2.249997e-08
vt  -3.290631e-15 -2.393716e-08
vt  1.120739 -2.393716e-08
vt  0.5603693 -0.9510593
vt  -5.1963e-08 3.430226e-08
vt  1.120739 5.367458e-09

# 120 Faces
g Group
usemtl Limonium_0
f 1/1/1 2/2/2 3/3/3
f 1/1/1 4/4/4 2/2/2
f 1/1/1 5/5/5 4/4/4
f 1/1/1 3/3/3 5/5/5
f 6/1/6 7/2/7 8/3/8
f 6/1/6 9/4/9 7/2/7
f 6/1/6 10/5/10 9/4/9
f 6/1/6 8/3/8 10/5/10
f 11/1/11 12/2/12 13/3/13
f 11/1/11 14/4/14 12/2/12
f 11/1/11 15/5/15 14/4/14
f 11/1/11 13/3/13 15/5/15
f 16/1/16 17/2/17 18/3/18
f 16/1/16 19/4/19 17/2/17
f 16/1/16 20/5/20 19/4/19
f 16/1/16 18/3/18 20/5/20
f 21/1/21 22/2/22 23/3/23
f 21/1/21 24/4/24 22/2/22
f 21/1/21 25/5/25 24/4/24
f 21/1/21 23/3/23 25/5/25
f 26/1/26 27/2/27 28/3/28
f 26/1/26 29/4/29 27/2/27
f 26/1/26 30/5/30 29/4/29
f 26/1/26 28/3/28 30/5/30
f 31/1/31 32/2/32 33/3/33
f 31/1/31 34/4/34 32/2/32
f 31/1/31 35/5/35 34/4/34
f 31/1/31 33/3/33 35/5/35
f 36/1/36 37/2/37 38/3/38
f 36/1/36 39/4/39 37/2/37
f 36/1/36 40/5/40 39/4/39
f 36/1/36 38/3/38 40/5/40
f 41/1/41 42/2/42 43/3/43
f 41/1/41 44/4/44 42/2/42
f 41/1/41 45/5/45 44/4/44
f 41/1/41 43/3/43 45/5/45
f 46/1/46 47/2/47 48/3/48
f 46/1/46 49/4/49 47/2/47
f 46/1/46 50/5/50 49/4/49
f 46/1/46 48/3/48 50/5/50
f 51/1/51 52/2/52 53/3/53
f 51/1/51 54/4/54 52/2/52
f 51/1/51 55/5/55 54/4/54
f 51/1/51 53/3/53 55/5/55
f 56/1/56 57/2/57 58/3/58
f 56/1/56 59/4/59 57/2/57
f 56/1/56 60/5/60 59/4/59
f 56/1/56 58/3/58 60/5/60
usemtl Material_1
f 61/6/61 62/7/62 63/8/63
f 61/6/61 64/9/64 62/10/62
f 61/11/61 63/12/63 64/13/64
f 65/6/65 66/7/66 67/8/67
f 65/6/65 68/9/68 66/10/66
f 65/11/65 67/12/67 68/13/68
f 69/6/69 70/7/70 71/8/71
f 69/6/69 72/9/72 70/10/70
f 69/11/69 71/12/71 72/13/72
f 73/6/73 74/7/74 75/8/75
f 73/6/73 76/9/76 74/10/74
f 73/11/73 75/12/75 76/13/76
f 77/6/77 78/7/78 79/8/79
f 77/6/77 80/9/80 78/10/78
f 77/11/77 79/12/79 80/13/80
f 81/6/81 82/7/82 83/8/83
f 81/6/81 84/9/84 82/10/82
f 81/11/81 83/12/83 84/13/84
f 85/6/85 86/7/86 87/8/87
f 85/6/85 88/9/88 86/10/86
f 85/11/85 87/12/87 88/13/88
f 89/6/89 90/7/90 91/8/91
f 89/6/89 92/9/92 90/10/90
f 89/11/89 91/12/91 92/13/92
f 93/6/93 94/7/94 95/8/95
f 93/6/93 96/9/96 94/10/94
f 93/11/93 95/12/95 96/13/96
f 97/6/97 98/7/98 99/8/99
f 97/6/97 100/9/100 98/10/98
f 97/11/97 99/12/99 100/13/100
f 101/6/101 102/7/102 103/8/103
f 101/6/101 104/9/104 102/10/102
f 101/11/101 103/12/103 104/13/104
f 105/6/105 106/7/106 107/8/107
f 105/6/105 108/9/108 106/10/106
f 105/11/105 107/12/107 108/13/108
usemtl Material_2
f 109/2/109 110/2/110 111/2/111
f 111/2/111 110/2/110 112/2/112
f 110/2/110 109/2/113 112/2/112
f 112/2/112 109/2/113 111/2/114
f 113/2/115 114/2/116 111/2/117 112/2/115
f 112/2/115 111/2/118 115/2/118 116/2/115
f 117/2/119 118/2/120 119/2/121
f 119/2/121 118/2/120 120/2/122
f 118/2/120 117/2/123 120/2/122
f 120/2/122 117/2/123 119/2/124
f 121/2/125 122/2/126 119/2/127 120/2/125
f 120/2/125 119/2/128 123/2/128 124/2/125
f 125/2/129 126/2/130 127/2/131
f 127/2/131 126/2/130 128/2/132
f 126/2/130 125/2/133 128/2/132
f 128/2/132 125/2/133 127/2/134
f 129/2/135 130/2/136 127/2/137 128/2/135
f 128/2/135 127/2/138 131/2/138 132/2/135
f 133/2/139 134/2/140 135/2/141
f 135/2/141 134/2/140 136/2/142
f 134/2/140 133/2/143 136/2/142
f 136/2/142 133/2/143 135/2/144
f 137/2/145 138/2/146 135/2/147 136/2/145
f 136/2/145 135/2/148 139/2/148 140/2/145
f 141/2/149 142/2/150 143/2/151
f 143/2/151 142/2/150 144/2/152
f 142/2/150 141/2/153 144/2/152
f 144/2/152 141/2/153 143/2/154
f 145/2/155 146/2/156 143/2/157 144/2/155
f 144/2/155 143/2/158 147/2/158 148/2/155
f 149/2/159 150/2/160 151/2/161
f 151/2/161 150/2/160 152/2/162
f 150/2/160 149/2/163 152/2/162
f 152/2/162 149/2/163 151/2/164
f 153/2/165 154/2/166 151/2/167 152/2/165
f 152/2/165 151/2/168 155/2/168 156/2/165

